<svg xmlns="http://www.w3.org/2000/svg" width="225" height="225" viewBox="0 0 225 225"><rect width="100%" height="100%" fill="white"/><rect x="100" y="16" width="4" height="4" fill="rgb(211,210,211)" /><rect x="104" y="16" width="4" height="4" fill="rgb(63,61,64)" /><rect x="108" y="16" width="4" height="4" fill="rgb(0,0,0)" /><rect x="112" y="16" width="4" height="4" fill="rgb(0,0,0)" /><rect x="116" y="16" width="4" height="4" fill="rgb(0,0,0)" /><rect x="120" y="16" width="4" height="4" fill="rgb(19,16,22)" /><rect x="124" y="16" width="4" height="4" fill="rgb(146,146,147)" /><rect x="88" y="20" width="4" height="4" fill="rgb(0,0,0)" /><rect x="92" y="20" width="4" height="4" fill="rgb(26,23,28)" /><rect x="96" y="20" width="4" height="4" fill="rgb(0,0,0)" /><rect x="100" y="20" width="4" height="4" fill="rgb(221,221,221)" /><rect x="128" y="20" width="4" height="4" fill="rgb(174,174,175)" /><rect x="132" y="20" width="4" height="4" fill="rgb(0,0,0)" /><rect x="136" y="20" width="4" height="4" fill="rgb(6,0,10)" /><rect x="140" y="20" width="4" height="4" fill="rgb(219,219,219)" /><rect x="80" y="24" width="4" height="4" fill="rgb(6,0,10)" /><rect x="84" y="24" width="4" height="4" fill="rgb(0,0,0)" /><rect x="140" y="24" width="4" height="4" fill="rgb(211,210,211)" /><rect x="144" y="24" width="4" height="4" fill="rgb(25,22,27)" /><rect x="148" y="24" width="4" height="4" fill="rgb(152,151,153)" /><rect x="72" y="28" width="4" height="4" fill="rgb(0,0,0)" /><rect x="76" y="28" width="4" height="4" fill="rgb(6,0,10)" /><rect x="148" y="28" width="4" height="4" fill="rgb(211,210,211)" /><rect x="152" y="28" width="4" height="4" fill="rgb(26,23,28)" /><rect x="68" y="32" width="4" height="4" fill="rgb(25,22,27)" /><rect x="72" y="32" width="4" height="4" fill="rgb(189,188,189)" /><rect x="156" y="32" width="4" height="4" fill="rgb(0,0,0)" /><rect x="160" y="32" width="4" height="4" fill="rgb(181,180,181)" /><rect x="64" y="36" width="4" height="4" fill="rgb(26,23,28)" /><rect x="160" y="36" width="4" height="4" fill="rgb(35,32,37)" /><rect x="164" y="36" width="4" height="4" fill="rgb(66,64,67)" /><rect x="60" y="40" width="4" height="4" fill="rgb(26,23,28)" /><rect x="96" y="40" width="4" height="4" fill="rgb(146,146,147)" /><rect x="100" y="40" width="4" height="4" fill="rgb(0,0,0)" /><rect x="104" y="40" width="4" height="4" fill="rgb(146,146,147)" /><rect x="120" y="40" width="4" height="4" fill="rgb(204,203,204)" /><rect x="124" y="40" width="4" height="4" fill="rgb(25,22,27)" /><rect x="128" y="40" width="4" height="4" fill="rgb(0,0,0)" /><rect x="132" y="40" width="4" height="4" fill="rgb(238,238,238)" /><rect x="164" y="40" width="4" height="4" fill="rgb(66,64,67)" /><rect x="168" y="40" width="4" height="4" fill="rgb(110,109,111)" /><rect x="56" y="44" width="4" height="4" fill="rgb(25,22,27)" /><rect x="88" y="44" width="4" height="4" fill="rgb(0,0,0)" /><rect x="92" y="44" width="4" height="4" fill="rgb(189,188,189)" /><rect x="136" y="44" width="4" height="4" fill="rgb(0,0,0)" /><rect x="140" y="44" width="4" height="4" fill="rgb(174,174,175)" /><rect x="168" y="44" width="4" height="4" fill="rgb(0,0,0)" /><rect x="52" y="48" width="4" height="4" fill="rgb(0,0,0)" /><rect x="84" y="48" width="4" height="4" fill="rgb(35,32,37)" /><rect x="144" y="48" width="4" height="4" fill="rgb(13,8,16)" /><rect x="172" y="48" width="4" height="4" fill="rgb(25,22,27)" /><rect x="52" y="52" width="4" height="4" fill="rgb(6,0,10)" /><rect x="76" y="52" width="4" height="4" fill="rgb(174,174,175)" /><rect x="80" y="52" width="4" height="4" fill="rgb(221,221,221)" /><rect x="148" y="52" width="4" height="4" fill="rgb(25,22,27)" /><rect x="176" y="52" width="4" height="4" fill="rgb(0,0,0)" /><rect x="48" y="56" width="4" height="4" fill="rgb(19,16,22)" /><rect x="72" y="56" width="4" height="4" fill="rgb(229,229,229)" /><rect x="76" y="56" width="4" height="4" fill="rgb(229,229,229)" /><rect x="152" y="56" width="4" height="4" fill="rgb(25,22,27)" /><rect x="176" y="56" width="4" height="4" fill="rgb(0,0,0)" /><rect x="48" y="60" width="4" height="4" fill="rgb(146,146,147)" /><rect x="72" y="60" width="4" height="4" fill="rgb(63,61,64)" /><rect x="76" y="60" width="4" height="4" fill="rgb(229,229,229)" /><rect x="80" y="60" width="4" height="4" fill="rgb(189,188,189)" /><rect x="84" y="60" width="4" height="4" fill="rgb(0,0,0)" /><rect x="92" y="60" width="4" height="4" fill="rgb(47,45,49)" /><rect x="96" y="60" width="4" height="4" fill="rgb(0,0,0)" /><rect x="100" y="60" width="4" height="4" fill="rgb(0,0,0)" /><rect x="124" y="60" width="4" height="4" fill="rgb(6,0,10)" /><rect x="128" y="60" width="4" height="4" fill="rgb(0,0,0)" /><rect x="132" y="60" width="4" height="4" fill="rgb(238,238,238)" /><rect x="140" y="60" width="4" height="4" fill="rgb(0,0,0)" /><rect x="148" y="60" width="4" height="4" fill="rgb(0,0,0)" /><rect x="156" y="60" width="4" height="4" fill="rgb(0,0,0)" /><rect x="180" y="60" width="4" height="4" fill="rgb(0,0,0)" /><rect x="44" y="64" width="4" height="4" fill="rgb(0,0,0)" /><rect x="68" y="64" width="4" height="4" fill="rgb(0,0,0)" /><rect x="76" y="64" width="4" height="4" fill="rgb(229,229,229)" /><rect x="84" y="64" width="4" height="4" fill="rgb(13,8,16)" /><rect x="92" y="64" width="4" height="4" fill="rgb(181,180,181)" /><rect x="96" y="64" width="4" height="4" fill="rgb(0,0,0)" /><rect x="100" y="64" width="4" height="4" fill="rgb(0,0,0)" /><rect x="104" y="64" width="4" height="4" fill="rgb(0,0,0)" /><rect x="120" y="64" width="4" height="4" fill="rgb(238,238,238)" /><rect x="124" y="64" width="4" height="4" fill="rgb(99,99,100)" /><rect x="128" y="64" width="4" height="4" fill="rgb(152,151,153)" /><rect x="136" y="64" width="4" height="4" fill="rgb(211,210,211)" /><rect x="140" y="64" width="4" height="4" fill="rgb(38,36,40)" /><rect x="148" y="64" width="4" height="4" fill="rgb(0,0,0)" /><rect x="156" y="64" width="4" height="4" fill="rgb(137,136,138)" /><rect x="180" y="64" width="4" height="4" fill="rgb(0,0,0)" /><rect x="44" y="68" width="4" height="4" fill="rgb(0,0,0)" /><rect x="68" y="68" width="4" height="4" fill="rgb(229,229,229)" /><rect x="76" y="68" width="4" height="4" fill="rgb(229,229,229)" /><rect x="92" y="68" width="4" height="4" fill="rgb(89,88,90)" /><rect x="96" y="68" width="4" height="4" fill="rgb(0,0,0)" /><rect x="100" y="68" width="4" height="4" fill="rgb(0,0,0)" /><rect x="104" y="68" width="4" height="4" fill="rgb(0,0,0)" /><rect x="120" y="68" width="4" height="4" fill="rgb(204,203,204)" /><rect x="124" y="68" width="4" height="4" fill="rgb(38,36,40)" /><rect x="128" y="68" width="4" height="4" fill="rgb(63,61,64)" /><rect x="136" y="68" width="4" height="4" fill="rgb(189,188,189)" /><rect x="148" y="68" width="4" height="4" fill="rgb(0,0,0)" /><rect x="160" y="68" width="4" height="4" fill="rgb(0,0,0)" /><rect x="184" y="68" width="4" height="4" fill="rgb(189,188,189)" /><rect x="64" y="72" width="4" height="4" fill="rgb(33,29,35)" /><rect x="76" y="72" width="4" height="4" fill="rgb(229,229,229)" /><rect x="96" y="72" width="4" height="4" fill="rgb(163,162,163)" /><rect x="104" y="72" width="4" height="4" fill="rgb(146,146,147)" /><rect x="108" y="72" width="4" height="4" fill="rgb(63,61,64)" /><rect x="116" y="72" width="4" height="4" fill="rgb(66,64,67)" /><rect x="120" y="72" width="4" height="4" fill="rgb(0,0,0)" /><rect x="124" y="72" width="4" height="4" fill="rgb(105,104,106)" /><rect x="128" y="72" width="4" height="4" fill="rgb(0,0,0)" /><rect x="148" y="72" width="4" height="4" fill="rgb(0,0,0)" /><rect x="160" y="72" width="4" height="4" fill="rgb(89,88,90)" /><rect x="184" y="72" width="4" height="4" fill="rgb(0,0,0)" /><rect x="40" y="76" width="4" height="4" fill="rgb(146,146,147)" /><rect x="64" y="76" width="4" height="4" fill="rgb(0,0,0)" /><rect x="76" y="76" width="4" height="4" fill="rgb(229,229,229)" /><rect x="104" y="76" width="4" height="4" fill="rgb(0,0,0)" /><rect x="108" y="76" width="4" height="4" fill="rgb(23,21,25)" /><rect x="112" y="76" width="4" height="4" fill="rgb(0,0,0)" /><rect x="116" y="76" width="4" height="4" fill="rgb(13,8,16)" /><rect x="120" y="76" width="4" height="4" fill="rgb(219,219,219)" /><rect x="148" y="76" width="4" height="4" fill="rgb(0,0,0)" /><rect x="184" y="76" width="4" height="4" fill="rgb(23,21,25)" /><rect x="40" y="80" width="4" height="4" fill="rgb(0,0,0)" /><rect x="64" y="80" width="4" height="4" fill="rgb(204,203,204)" /><rect x="76" y="80" width="4" height="4" fill="rgb(229,229,229)" /><rect x="112" y="80" width="4" height="4" fill="rgb(134,133,135)" /><rect x="116" y="80" width="4" height="4" fill="rgb(204,203,204)" /><rect x="148" y="80" width="4" height="4" fill="rgb(0,0,0)" /><rect x="164" y="80" width="4" height="4" fill="rgb(134,133,135)" /><rect x="184" y="80" width="4" height="4" fill="rgb(0,0,0)" /><rect x="40" y="84" width="4" height="4" fill="rgb(0,0,0)" /><rect x="76" y="84" width="4" height="4" fill="rgb(229,229,229)" /><rect x="148" y="84" width="4" height="4" fill="rgb(0,0,0)" /><rect x="164" y="84" width="4" height="4" fill="rgb(0,0,0)" /><rect x="184" y="84" width="4" height="4" fill="rgb(78,77,79)" /><rect x="40" y="88" width="4" height="4" fill="rgb(0,0,0)" /><rect x="76" y="88" width="4" height="4" fill="rgb(229,229,229)" /><rect x="148" y="88" width="4" height="4" fill="rgb(0,0,0)" /><rect x="164" y="88" width="4" height="4" fill="rgb(0,0,0)" /><rect x="184" y="88" width="4" height="4" fill="rgb(152,151,153)" /><rect x="40" y="92" width="4" height="4" fill="rgb(0,0,0)" /><rect x="76" y="92" width="4" height="4" fill="rgb(229,229,229)" /><rect x="148" y="92" width="4" height="4" fill="rgb(0,0,0)" /><rect x="164" y="92" width="4" height="4" fill="rgb(0,0,0)" /><rect x="184" y="92" width="4" height="4" fill="rgb(152,151,153)" /><rect x="40" y="96" width="4" height="4" fill="rgb(0,0,0)" /><rect x="76" y="96" width="4" height="4" fill="rgb(229,229,229)" /><rect x="148" y="96" width="4" height="4" fill="rgb(0,0,0)" /><rect x="164" y="96" width="4" height="4" fill="rgb(0,0,0)" /><rect x="184" y="96" width="4" height="4" fill="rgb(76,74,77)" /><rect x="40" y="100" width="4" height="4" fill="rgb(38,36,40)" /><rect x="64" y="100" width="4" height="4" fill="rgb(137,136,138)" /><rect x="76" y="100" width="4" height="4" fill="rgb(229,229,229)" /><rect x="148" y="100" width="4" height="4" fill="rgb(0,0,0)" /><rect x="164" y="100" width="4" height="4" fill="rgb(146,146,147)" /><rect x="184" y="100" width="4" height="4" fill="rgb(0,0,0)" /><rect x="40" y="104" width="4" height="4" fill="rgb(211,210,211)" /><rect x="64" y="104" width="4" height="4" fill="rgb(0,0,6)" /><rect x="76" y="104" width="4" height="4" fill="rgb(229,229,229)" /><rect x="148" y="104" width="4" height="4" fill="rgb(0,0,0)" /><rect x="184" y="104" width="4" height="4" fill="rgb(25,22,27)" /><rect x="44" y="108" width="4" height="4" fill="rgb(219,219,219)" /><rect x="64" y="108" width="4" height="4" fill="rgb(110,109,111)" /><rect x="76" y="108" width="4" height="4" fill="rgb(229,229,229)" /><rect x="148" y="108" width="4" height="4" fill="rgb(0,0,0)" /><rect x="160" y="108" width="4" height="4" fill="rgb(0,0,0)" /><rect x="184" y="108" width="4" height="4" fill="rgb(19,16,22)" /><rect x="44" y="112" width="4" height="4" fill="rgb(0,0,0)" /><rect x="68" y="112" width="4" height="4" fill="rgb(33,29,35)" /><rect x="144" y="112" width="4" height="4" fill="rgb(76,74,77)" /><rect x="152" y="112" width="4" height="4" fill="rgb(221,221,221)" /><rect x="156" y="112" width="4" height="4" fill="rgb(95,94,96)" /><rect x="160" y="112" width="4" height="4" fill="rgb(89,88,90)" /><rect x="180" y="112" width="4" height="4" fill="rgb(229,229,229)" /><rect x="184" y="112" width="4" height="4" fill="rgb(204,203,204)" /><rect x="188" y="112" width="4" height="4" fill="rgb(0,0,0)" /><rect x="192" y="112" width="4" height="4" fill="rgb(0,0,0)" /><rect x="196" y="112" width="4" height="4" fill="rgb(137,136,138)" /><rect x="44" y="116" width="4" height="4" fill="rgb(95,94,96)" /><rect x="68" y="116" width="4" height="4" fill="rgb(78,77,79)" /><rect x="88" y="116" width="4" height="4" fill="rgb(0,0,0)" /><rect x="128" y="116" width="4" height="4" fill="rgb(219,219,219)" /><rect x="132" y="116" width="4" height="4" fill="rgb(45,43,47)" /><rect x="136" y="116" width="4" height="4" fill="rgb(0,0,0)" /><rect x="140" y="116" width="4" height="4" fill="rgb(54,52,55)" /><rect x="144" y="116" width="4" height="4" fill="rgb(229,229,229)" /><rect x="156" y="116" width="4" height="4" fill="rgb(0,0,0)" /><rect x="180" y="116" width="4" height="4" fill="rgb(0,0,0)" /><rect x="208" y="116" width="4" height="4" fill="rgb(78,77,79)" /><rect x="212" y="116" width="4" height="4" fill="rgb(198,197,198)" /><rect x="48" y="120" width="4" height="4" fill="rgb(0,0,0)" /><rect x="72" y="120" width="4" height="4" fill="rgb(19,16,22)" /><rect x="92" y="120" width="4" height="4" fill="rgb(229,229,229)" /><rect x="124" y="120" width="4" height="4" fill="rgb(189,188,189)" /><rect x="152" y="120" width="4" height="4" fill="rgb(189,188,189)" /><rect x="156" y="120" width="4" height="4" fill="rgb(238,238,238)" /><rect x="180" y="120" width="4" height="4" fill="rgb(95,94,96)" /><rect x="192" y="120" width="4" height="4" fill="rgb(117,116,117)" /><rect x="204" y="120" width="4" height="4" fill="rgb(76,74,77)" /><rect x="48" y="124" width="4" height="4" fill="rgb(0,0,0)" /><rect x="76" y="124" width="4" height="4" fill="rgb(0,0,0)" /><rect x="100" y="124" width="4" height="4" fill="rgb(38,36,40)" /><rect x="116" y="124" width="4" height="4" fill="rgb(0,0,0)" /><rect x="124" y="124" width="4" height="4" fill="rgb(19,16,22)" /><rect x="152" y="124" width="4" height="4" fill="rgb(54,52,55)" /><rect x="176" y="124" width="4" height="4" fill="rgb(0,0,0)" /><rect x="180" y="124" width="4" height="4" fill="rgb(0,0,0)" /><rect x="200" y="124" width="4" height="4" fill="rgb(0,0,0)" /><rect x="52" y="128" width="4" height="4" fill="rgb(19,16,22)" /><rect x="80" y="128" width="4" height="4" fill="rgb(0,0,0)" /><rect x="104" y="128" width="4" height="4" fill="rgb(174,174,175)" /><rect x="108" y="128" width="4" height="4" fill="rgb(0,0,0)" /><rect x="124" y="128" width="4" height="4" fill="rgb(0,0,0)" /><rect x="144" y="128" width="4" height="4" fill="rgb(211,210,211)" /><rect x="148" y="128" width="4" height="4" fill="rgb(78,77,79)" /><rect x="176" y="128" width="4" height="4" fill="rgb(163,162,163)" /><rect x="196" y="128" width="4" height="4" fill="rgb(0,0,0)" /><rect x="52" y="132" width="4" height="4" fill="rgb(229,229,229)" /><rect x="56" y="132" width="4" height="4" fill="rgb(19,16,22)" /><rect x="84" y="132" width="4" height="4" fill="rgb(33,29,35)" /><rect x="100" y="132" width="4" height="4" fill="rgb(0,0,0)" /><rect x="140" y="132" width="4" height="4" fill="rgb(0,0,0)" /><rect x="172" y="132" width="4" height="4" fill="rgb(13,8,16)" /><rect x="192" y="132" width="4" height="4" fill="rgb(69,67,70)" /><rect x="56" y="136" width="4" height="4" fill="rgb(19,16,22)" /><rect x="60" y="136" width="4" height="4" fill="rgb(181,180,181)" /><rect x="92" y="136" width="4" height="4" fill="rgb(0,0,0)" /><rect x="96" y="136" width="4" height="4" fill="rgb(211,210,211)" /><rect x="132" y="136" width="4" height="4" fill="rgb(0,0,0)" /><rect x="136" y="136" width="4" height="4" fill="rgb(146,146,147)" /><rect x="168" y="136" width="4" height="4" fill="rgb(0,0,0)" /><rect x="184" y="136" width="4" height="4" fill="rgb(181,180,181)" /><rect x="188" y="136" width="4" height="4" fill="rgb(229,229,229)" /><rect x="60" y="140" width="4" height="4" fill="rgb(0,0,0)" /><rect x="64" y="140" width="4" height="4" fill="rgb(189,188,189)" /><rect x="104" y="140" width="4" height="4" fill="rgb(99,99,100)" /><rect x="108" y="140" width="4" height="4" fill="rgb(0,0,0)" /><rect x="112" y="140" width="4" height="4" fill="rgb(0,0,0)" /><rect x="116" y="140" width="4" height="4" fill="rgb(0,0,0)" /><rect x="120" y="140" width="4" height="4" fill="rgb(19,16,22)" /><rect x="124" y="140" width="4" height="4" fill="rgb(26,23,28)" /><rect x="128" y="140" width="4" height="4" fill="rgb(26,23,28)" /><rect x="132" y="140" width="4" height="4" fill="rgb(238,238,238)" /><rect x="164" y="140" width="4" height="4" fill="rgb(105,104,106)" /><rect x="180" y="140" width="4" height="4" fill="rgb(0,0,0)" /><rect x="64" y="144" width="4" height="4" fill="rgb(0,0,0)" /><rect x="68" y="144" width="4" height="4" fill="rgb(76,74,77)" /><rect x="136" y="144" width="4" height="4" fill="rgb(189,188,189)" /><rect x="140" y="144" width="4" height="4" fill="rgb(47,45,49)" /><rect x="144" y="144" width="4" height="4" fill="rgb(0,0,0)" /><rect x="148" y="144" width="4" height="4" fill="rgb(163,162,163)" /><rect x="160" y="144" width="4" height="4" fill="rgb(78,77,79)" /><rect x="176" y="144" width="4" height="4" fill="rgb(0,0,0)" /><rect x="68" y="148" width="4" height="4" fill="rgb(121,120,122)" /><rect x="72" y="148" width="4" height="4" fill="rgb(13,8,16)" /><rect x="160" y="148" width="4" height="4" fill="rgb(66,64,67)" /><rect x="164" y="148" width="4" height="4" fill="rgb(0,0,0)" /><rect x="168" y="148" width="4" height="4" fill="rgb(76,74,77)" /><rect x="172" y="148" width="4" height="4" fill="rgb(238,238,238)" /><rect x="52" y="152" width="4" height="4" fill="rgb(198,197,198)" /><rect x="56" y="152" width="4" height="4" fill="rgb(0,0,0)" /><rect x="60" y="152" width="4" height="4" fill="rgb(110,109,111)" /><rect x="76" y="152" width="4" height="4" fill="rgb(211,210,211)" /><rect x="80" y="152" width="4" height="4" fill="rgb(0,0,0)" /><rect x="176" y="152" width="4" height="4" fill="rgb(229,229,229)" /><rect x="180" y="152" width="4" height="4" fill="rgb(0,0,0)" /><rect x="184" y="152" width="4" height="4" fill="rgb(6,0,10)" /><rect x="188" y="152" width="4" height="4" fill="rgb(19,16,22)" /><rect x="36" y="156" width="4" height="4" fill="rgb(219,219,219)" /><rect x="40" y="156" width="4" height="4" fill="rgb(0,0,0)" /><rect x="44" y="156" width="4" height="4" fill="rgb(198,197,198)" /><rect x="88" y="156" width="4" height="4" fill="rgb(146,146,147)" /><rect x="92" y="156" width="4" height="4" fill="rgb(0,0,0)" /><rect x="96" y="156" width="4" height="4" fill="rgb(238,238,238)" /><rect x="196" y="156" width="4" height="4" fill="rgb(174,174,175)" /><rect x="200" y="156" width="4" height="4" fill="rgb(0,0,0)" /><rect x="204" y="156" width="4" height="4" fill="rgb(0,0,0)" /><rect x="24" y="160" width="4" height="4" fill="rgb(219,219,219)" /><rect x="28" y="160" width="4" height="4" fill="rgb(13,8,16)" /><rect x="104" y="160" width="4" height="4" fill="rgb(26,23,28)" /><rect x="108" y="160" width="4" height="4" fill="rgb(0,0,6)" /><rect x="112" y="160" width="4" height="4" fill="rgb(13,8,16)" /><rect x="116" y="160" width="4" height="4" fill="rgb(105,104,106)" /><rect x="120" y="160" width="4" height="4" fill="rgb(174,174,175)" /><rect x="124" y="160" width="4" height="4" fill="rgb(198,197,198)" /><rect x="128" y="160" width="4" height="4" fill="rgb(219,219,219)" /><rect x="132" y="160" width="4" height="4" fill="rgb(238,238,238)" /><rect x="212" y="160" width="4" height="4" fill="rgb(198,197,198)" /><rect x="216" y="160" width="4" height="4" fill="rgb(0,0,0)" /><rect x="16" y="164" width="4" height="4" fill="rgb(25,22,27)" /><rect x="68" y="164" width="4" height="4" fill="rgb(198,197,198)" /><rect x="72" y="164" width="4" height="4" fill="rgb(63,61,64)" /><rect x="76" y="164" width="4" height="4" fill="rgb(0,0,0)" /><rect x="80" y="164" width="4" height="4" fill="rgb(0,0,0)" /><rect x="84" y="164" width="4" height="4" fill="rgb(0,0,0)" /><rect x="88" y="164" width="4" height="4" fill="rgb(146,146,147)" /><rect x="92" y="164" width="4" height="4" fill="rgb(204,203,204)" /><rect x="96" y="164" width="4" height="4" fill="rgb(238,238,238)" /><rect x="100" y="164" width="4" height="4" fill="rgb(219,219,219)" /><rect x="144" y="164" width="4" height="4" fill="rgb(238,238,238)" /><rect x="148" y="164" width="4" height="4" fill="rgb(174,174,175)" /><rect x="152" y="164" width="4" height="4" fill="rgb(19,16,22)" /><rect x="156" y="164" width="4" height="4" fill="rgb(0,0,0)" /><rect x="160" y="164" width="4" height="4" fill="rgb(0,0,0)" /><rect x="164" y="164" width="4" height="4" fill="rgb(78,77,79)" /><rect x="204" y="164" width="4" height="4" fill="rgb(211,210,211)" /><rect x="208" y="164" width="4" height="4" fill="rgb(134,133,135)" /><rect x="212" y="164" width="4" height="4" fill="rgb(110,109,111)" /><rect x="216" y="164" width="4" height="4" fill="rgb(95,94,96)" /><rect x="220" y="164" width="4" height="4" fill="rgb(0,0,0)" /><rect x="8" y="168" width="4" height="4" fill="rgb(0,0,0)" /><rect x="12" y="168" width="4" height="4" fill="rgb(26,23,28)" /><rect x="16" y="168" width="4" height="4" fill="rgb(0,0,0)" /><rect x="20" y="168" width="4" height="4" fill="rgb(25,22,27)" /><rect x="24" y="168" width="4" height="4" fill="rgb(181,180,181)" /><rect x="28" y="168" width="4" height="4" fill="rgb(25,22,27)" /><rect x="48" y="168" width="4" height="4" fill="rgb(137,136,138)" /><rect x="52" y="168" width="4" height="4" fill="rgb(0,0,0)" /><rect x="56" y="168" width="4" height="4" fill="rgb(6,0,10)" /><rect x="60" y="168" width="4" height="4" fill="rgb(219,219,219)" /><rect x="84" y="168" width="4" height="4" fill="rgb(13,8,16)" /><rect x="88" y="168" width="4" height="4" fill="rgb(26,23,28)" /><rect x="92" y="168" width="4" height="4" fill="rgb(26,23,28)" /><rect x="96" y="168" width="4" height="4" fill="rgb(229,229,229)" /><rect x="140" y="168" width="4" height="4" fill="rgb(0,0,0)" /><rect x="172" y="168" width="4" height="4" fill="rgb(117,116,117)" /><rect x="176" y="168" width="4" height="4" fill="rgb(13,8,16)" /><rect x="180" y="168" width="4" height="4" fill="rgb(63,61,64)" /><rect x="200" y="168" width="4" height="4" fill="rgb(0,0,0)" /><rect x="24" y="172" width="4" height="4" fill="rgb(0,0,0)" /><rect x="36" y="172" width="4" height="4" fill="rgb(66,64,67)" /><rect x="40" y="172" width="4" height="4" fill="rgb(0,0,0)" /><rect x="48" y="172" width="4" height="4" fill="rgb(211,210,211)" /><rect x="52" y="172" width="4" height="4" fill="rgb(0,0,0)" /><rect x="76" y="172" width="4" height="4" fill="rgb(181,180,181)" /><rect x="80" y="172" width="4" height="4" fill="rgb(26,23,28)" /><rect x="84" y="172" width="4" height="4" fill="rgb(26,23,28)" /><rect x="88" y="172" width="4" height="4" fill="rgb(146,146,147)" /><rect x="132" y="172" width="4" height="4" fill="rgb(0,0,0)" /><rect x="184" y="172" width="4" height="4" fill="rgb(211,210,211)" /><rect x="188" y="172" width="4" height="4" fill="rgb(6,0,10)" /><rect x="192" y="172" width="4" height="4" fill="rgb(211,210,211)" /><rect x="204" y="172" width="4" height="4" fill="rgb(13,8,16)" /><rect x="20" y="176" width="4" height="4" fill="rgb(19,16,22)" /><rect x="28" y="176" width="4" height="4" fill="rgb(0,0,0)" /><rect x="44" y="176" width="4" height="4" fill="rgb(0,0,0)" /><rect x="48" y="176" width="4" height="4" fill="rgb(26,23,28)" /><rect x="52" y="176" width="4" height="4" fill="rgb(163,162,163)" /><rect x="72" y="176" width="4" height="4" fill="rgb(23,21,25)" /><rect x="76" y="176" width="4" height="4" fill="rgb(26,23,28)" /><rect x="80" y="176" width="4" height="4" fill="rgb(33,29,35)" /><rect x="120" y="176" width="4" height="4" fill="rgb(152,151,153)" /><rect x="124" y="176" width="4" height="4" fill="rgb(0,0,0)" /><rect x="196" y="176" width="4" height="4" fill="rgb(0,0,0)" /><rect x="200" y="176" width="4" height="4" fill="rgb(238,238,238)" /><rect x="16" y="180" width="4" height="4" fill="rgb(26,23,28)" /><rect x="20" y="180" width="4" height="4" fill="rgb(26,23,28)" /><rect x="44" y="180" width="4" height="4" fill="rgb(26,23,28)" /><rect x="48" y="180" width="4" height="4" fill="rgb(134,133,135)" /><rect x="64" y="180" width="4" height="4" fill="rgb(0,0,0)" /><rect x="68" y="180" width="4" height="4" fill="rgb(26,23,28)" /><rect x="72" y="180" width="4" height="4" fill="rgb(0,0,0)" /><rect x="112" y="180" width="4" height="4" fill="rgb(0,0,0)" /><rect x="116" y="180" width="4" height="4" fill="rgb(189,188,189)" /><rect x="204" y="180" width="4" height="4" fill="rgb(0,0,0)" /><rect x="208" y="180" width="4" height="4" fill="rgb(189,188,189)" /><rect x="12" y="184" width="4" height="4" fill="rgb(152,151,153)" /><rect x="44" y="184" width="4" height="4" fill="rgb(181,180,181)" /><rect x="56" y="184" width="4" height="4" fill="rgb(137,136,138)" /><rect x="60" y="184" width="4" height="4" fill="rgb(26,23,28)" /><rect x="64" y="184" width="4" height="4" fill="rgb(0,0,0)" /><rect x="100" y="184" width="4" height="4" fill="rgb(89,88,90)" /><rect x="104" y="184" width="4" height="4" fill="rgb(26,23,28)" /><rect x="44" y="188" width="4" height="4" fill="rgb(33,29,35)" /><rect x="52" y="188" width="4" height="4" fill="rgb(23,21,25)" /><rect x="56" y="188" width="4" height="4" fill="rgb(19,16,22)" /><rect x="88" y="188" width="4" height="4" fill="rgb(211,210,211)" /><rect x="92" y="188" width="4" height="4" fill="rgb(0,0,0)" /><rect x="44" y="192" width="4" height="4" fill="rgb(13,8,16)" /><rect x="48" y="192" width="4" height="4" fill="rgb(25,22,27)" /><rect x="60" y="192" width="4" height="4" fill="rgb(0,0,0)" /><rect x="80" y="192" width="4" height="4" fill="rgb(0,0,0)" /><rect x="84" y="192" width="4" height="4" fill="rgb(163,162,163)" /><rect x="36" y="196" width="4" height="4" fill="rgb(204,203,204)" /><rect x="40" y="196" width="4" height="4" fill="rgb(26,23,28)" /><rect x="44" y="196" width="4" height="4" fill="rgb(229,229,229)" /><rect x="48" y="196" width="4" height="4" fill="rgb(0,0,0)" /><rect x="52" y="196" width="4" height="4" fill="rgb(0,0,0)" /><rect x="56" y="196" width="4" height="4" fill="rgb(0,0,0)" /><rect x="60" y="196" width="4" height="4" fill="rgb(6,0,10)" /><rect x="64" y="196" width="4" height="4" fill="rgb(95,94,96)" /><rect x="68" y="196" width="4" height="4" fill="rgb(137,136,138)" /><rect x="72" y="196" width="4" height="4" fill="rgb(0,0,0)" /><rect x="32" y="200" width="4" height="4" fill="rgb(0,0,0)" /><rect x="36" y="200" width="4" height="4" fill="rgb(238,238,238)" /><rect x="52" y="200" width="4" height="4" fill="rgb(0,0,0)" /><rect x="56" y="200" width="4" height="4" fill="rgb(25,22,27)" /><rect x="60" y="200" width="4" height="4" fill="rgb(19,16,22)" /><rect x="24" y="204" width="4" height="4" fill="rgb(63,61,64)" /><rect x="64" y="204" width="4" height="4" fill="rgb(110,109,111)" /><rect x="68" y="204" width="4" height="4" fill="rgb(0,0,0)" /></svg>